<svg width="153" height="64" viewBox="0 0 153 64" fill="none" xmlns="http://www.w3.org/2000/svg">
<path d="M8.67672 54.5639H6.34631V60.9985H5.05431V54.5639H2.74805V53.5135H8.67672V54.5639Z" fill="white"/>
<path d="M10.7777 56.0365C10.965 55.8099 11.2016 55.629 11.4695 55.5077C11.7373 55.3863 12.0293 55.3277 12.3232 55.3363C13.5307 55.3363 14.1103 56.0124 14.1224 57.3645V60.9863H12.9149V57.3645C12.93 57.2176 12.9153 57.0692 12.8717 56.9282C12.8281 56.7871 12.7566 56.6563 12.6613 56.5435C12.4599 56.3729 12.2004 56.2864 11.9368 56.3021C11.7044 56.2947 11.4748 56.3546 11.2756 56.4745C11.0764 56.5944 10.9161 56.7693 10.8139 56.9782V60.95H9.60645V53.0546H10.8139L10.7777 56.0365Z" fill="white"/>
<path d="M17.8415 61.095C17.4851 61.1117 17.1291 61.0538 16.7964 60.9249C16.4637 60.796 16.1617 60.599 15.9096 60.3465C15.6604 60.0802 15.467 59.7668 15.3405 59.4247C15.214 59.0827 15.1571 58.7188 15.173 58.3545V58.2096C15.1653 57.6922 15.2768 57.18 15.4991 56.7126C15.6965 56.298 16.0082 55.9483 16.3974 55.7046C16.7867 55.4608 17.2374 55.3331 17.6966 55.3363C18.0243 55.3162 18.3523 55.371 18.6557 55.4965C18.959 55.622 19.2298 55.8149 19.4475 56.0607C19.8972 56.6469 20.1202 57.3756 20.0754 58.113V58.608H16.4529C16.4751 59.0184 16.642 59.4076 16.9239 59.7066C17.0569 59.8385 17.2155 59.942 17.3899 60.0105C17.5643 60.079 17.7508 60.1111 17.9381 60.105C18.2108 60.1099 18.4806 60.0488 18.7244 59.9269C18.9683 59.8049 19.1791 59.6258 19.3388 59.4048L20.0029 60.0567C19.7764 60.3867 19.4686 60.6528 19.1094 60.8294C18.7138 61.017 18.2792 61.1081 17.8415 61.095ZM17.6846 56.3384C17.5292 56.3326 17.3746 56.3622 17.2323 56.425C17.0901 56.4877 16.964 56.582 16.8635 56.7006C16.6256 56.9836 16.482 57.334 16.4529 57.7026H18.8679V57.606C18.8708 57.2603 18.7558 56.9239 18.5419 56.6523C18.4298 56.5416 18.2953 56.4562 18.1474 56.4021C17.9994 56.3479 17.8416 56.3262 17.6846 56.3384Z" fill="white"/>
<path d="M29.5179 60.0205C29.2305 60.3939 28.8402 60.675 28.395 60.8293C27.8681 61.0161 27.3117 61.1061 26.7528 61.0949C26.1694 61.1075 25.5935 60.9614 25.0865 60.6724C24.604 60.3898 24.2171 59.9694 23.9756 59.4651C23.7003 58.8843 23.56 58.2487 23.5651 57.606V57.0748C23.5064 56.121 23.7937 55.178 24.3741 54.4188C24.6576 54.1009 25.0086 53.8503 25.4013 53.6853C25.794 53.5203 26.2186 53.4451 26.6442 53.465C27.3583 53.4292 28.0614 53.6521 28.6244 54.0928C29.1387 54.5481 29.4585 55.1833 29.5179 55.8675H28.238C28.2275 55.6743 28.178 55.4853 28.0927 55.3117C28.0073 55.1381 27.8877 54.9835 27.7411 54.8573C27.5945 54.731 27.424 54.6356 27.2396 54.5769C27.0553 54.5181 26.8609 54.4972 26.6683 54.5154C26.4124 54.5027 26.1572 54.5533 25.9255 54.6629C25.6938 54.7724 25.4927 54.9373 25.3401 55.1431C25.0019 55.6979 24.8378 56.3413 24.8692 56.9902V57.5697C24.8258 58.238 25.0087 58.9014 25.3884 59.4531C25.5517 59.6707 25.7659 59.8449 26.0122 59.9607C26.2584 60.0764 26.5293 60.1301 26.8011 60.1171C27.0565 60.1436 27.3147 60.1177 27.5597 60.0409C27.8047 59.9641 28.0314 59.838 28.2259 59.6704V58.2096H26.6804V57.2196H29.5179V60.0205Z" fill="white"/>
<path d="M32.1621 60.9984H30.9546V53.1029H32.1621V60.9984Z" fill="white"/>
<path d="M33.2849 58.1613C33.2769 57.6516 33.3886 57.1471 33.6109 56.6884C33.8047 56.2707 34.1204 55.9214 34.5165 55.6864C34.9195 55.4413 35.3854 55.3196 35.8568 55.3363C36.1965 55.321 36.5356 55.3777 36.8518 55.5025C37.1681 55.6273 37.4545 55.8175 37.6922 56.0607C38.1739 56.5848 38.4448 57.2684 38.4529 57.9802V58.282C38.4603 58.7903 38.353 59.2938 38.1389 59.7549C37.9385 60.1682 37.6244 60.5158 37.2333 60.7569C36.8205 60.9995 36.3476 61.1208 35.8689 61.107C35.5176 61.1231 35.167 61.0623 34.8416 60.9289C34.5163 60.7954 34.224 60.5925 33.9852 60.3343C33.4951 59.7475 33.245 58.9972 33.2849 58.2337V58.1613ZM34.4924 58.2699C34.4642 58.7479 34.5913 59.2222 34.8546 59.6221C34.9683 59.7736 35.1161 59.8963 35.286 59.9802C35.4559 60.0641 35.6432 60.1068 35.8327 60.105C36.0252 60.1074 36.2156 60.0637 36.3878 59.9776C36.56 59.8915 36.7092 59.7655 36.8228 59.61C37.0834 59.1737 37.2056 58.6685 37.173 58.1613C37.1976 57.6912 37.0706 57.2257 36.8107 56.8333C36.6988 56.6787 36.5517 56.5528 36.3817 56.4661C36.2117 56.3793 36.0236 56.334 35.8327 56.334C35.6418 56.334 35.4536 56.3793 35.2836 56.4661C35.1136 56.5528 34.9666 56.6787 34.8546 56.8333C34.5964 57.27 34.4824 57.7769 34.5286 58.282L34.4924 58.2699Z" fill="white"/>
<path d="M44.3937 58.2821C44.4332 59.0152 44.2295 59.741 43.8141 60.3465C43.6301 60.5931 43.3888 60.7912 43.1112 60.9237C42.8335 61.0562 42.5277 61.1191 42.2202 61.107C41.9288 61.1224 41.6381 61.0667 41.3731 60.9447C41.108 60.8228 40.8766 60.6381 40.6988 60.4068L40.6384 61.0104H39.5034V53.115H40.7109V55.9762C40.8893 55.769 41.1124 55.6048 41.3633 55.4961C41.6143 55.3874 41.8866 55.3369 42.1598 55.3484C42.468 55.335 42.7748 55.3961 43.0544 55.5264C43.3339 55.6566 43.5779 55.8524 43.7658 56.0969C44.1865 56.7181 44.3903 57.4608 44.3454 58.2096L44.3937 58.2821ZM43.1862 58.1734C43.2229 57.7012 43.1133 57.229 42.8723 56.8213C42.7686 56.6726 42.6289 56.5526 42.4664 56.4724C42.3038 56.3922 42.1236 56.3544 41.9425 56.3625C41.7041 56.3559 41.4691 56.42 41.2671 56.5468C41.0651 56.6735 40.9052 56.8573 40.8075 57.0748V59.3686C40.9041 59.5903 41.0651 59.7779 41.2697 59.9071C41.4742 60.0362 41.7128 60.101 41.9546 60.0929C42.13 60.103 42.3051 60.0684 42.4634 59.9924C42.6218 59.9164 42.7583 59.8014 42.8602 59.6583C43.1049 59.265 43.219 58.8044 43.1862 58.3424V58.1734Z" fill="white"/>
<path d="M48.7645 60.9984C48.6873 60.8347 48.6383 60.6592 48.6196 60.4792C48.4325 60.6781 48.2059 60.8357 47.9543 60.9417C47.7026 61.0478 47.4316 61.1 47.1585 61.0949C46.6605 61.1164 46.1729 60.9482 45.7941 60.6241C45.6199 60.4762 45.4816 60.2907 45.3896 60.0816C45.2975 59.8725 45.2542 59.6452 45.2628 59.4169C45.2492 59.1519 45.3029 58.8878 45.419 58.6492C45.5352 58.4106 45.7099 58.2054 45.9269 58.0526C46.4892 57.6995 47.1477 57.5306 47.8106 57.5697H48.5713V57.2076C48.5802 57.0825 48.5634 56.9568 48.5219 56.8385C48.4803 56.7201 48.4149 56.6115 48.3298 56.5194C48.2346 56.4265 48.1209 56.3548 47.996 56.309C47.8711 56.2633 47.738 56.2445 47.6053 56.2538C47.3536 56.2419 47.1057 56.3188 46.905 56.4711C46.8193 56.5336 46.7496 56.6153 46.7013 56.7097C46.6531 56.804 46.6277 56.9084 46.6273 57.0144H45.4198C45.4205 56.7028 45.5269 56.4006 45.7217 56.1573C45.9354 55.8794 46.2186 55.6629 46.5427 55.5295C46.926 55.3748 47.3371 55.3008 47.7502 55.3122C48.3138 55.2848 48.8692 55.4557 49.3199 55.7951C49.5145 55.9688 49.6684 56.1833 49.7707 56.4232C49.873 56.6632 49.9211 56.9227 49.9116 57.1834V59.6824C49.8968 60.0947 49.9666 60.5055 50.1168 60.8897V60.9742L48.7645 60.9984ZM47.388 60.0929C47.6332 60.0943 47.8745 60.0319 48.0883 59.9118C48.2965 59.8063 48.4657 59.6371 48.5713 59.4289V58.3907H47.9072C47.5406 58.3619 47.1739 58.4462 46.8567 58.6321C46.7457 58.7058 46.6554 58.8066 46.5941 58.9249C46.5328 59.0431 46.5027 59.1751 46.5065 59.3082C46.5032 59.4164 46.523 59.5241 46.5647 59.624C46.6063 59.7239 46.6688 59.8138 46.748 59.8877C46.9299 60.0305 47.1569 60.1033 47.388 60.0929Z" fill="white"/>
<path d="M52.4594 60.9984H51.252V53.1029H52.4594V60.9984Z" fill="white"/>
<path d="M60.936 57.6544H57.8691V59.9603H61.4915V60.9985H56.6616V53.5135H61.4915V54.5639H57.9415V56.6283H61.0085L60.936 57.6544Z" fill="white"/>
<path d="M64.5824 60.105C64.8687 60.1084 65.1468 60.01 65.3673 59.8273C65.4668 59.7445 65.5474 59.6413 65.6036 59.5247C65.6599 59.408 65.6904 59.2807 65.6933 59.1513H66.9008C66.8875 59.4998 66.7789 59.838 66.5868 60.1291C66.3741 60.4335 66.0874 60.6786 65.7537 60.8414C65.4089 61.0133 65.028 61.1002 64.6428 61.095C64.2973 61.1106 63.9525 61.0518 63.6317 60.9227C63.3109 60.7936 63.0216 60.5971 62.7833 60.3465C62.3068 59.7581 62.0658 59.0138 62.1071 58.2579V58.1251C62.0657 57.3876 62.3075 56.6621 62.7833 56.0969C63.0156 55.8411 63.3018 55.6402 63.6213 55.5086C63.9409 55.3771 64.2856 55.3182 64.6307 55.3363C65.2252 55.31 65.8062 55.5181 66.2487 55.9158C66.4586 56.1065 66.6253 56.3397 66.7377 56.6C66.8501 56.8602 66.9057 57.1414 66.9008 57.4249H65.6933C65.6904 57.131 65.5735 56.8497 65.3673 56.6402C65.2639 56.5391 65.1409 56.4602 65.006 56.4083C64.871 56.3564 64.7269 56.3326 64.5824 56.3384C64.4038 56.3297 64.2257 56.3647 64.0637 56.4405C63.9016 56.5162 63.7606 56.6303 63.6527 56.773C63.4011 57.1727 63.2827 57.6418 63.3146 58.113V58.282C63.2815 58.7556 63.3953 59.2277 63.6406 59.6342C63.7448 59.786 63.8859 59.9089 64.0506 59.9913C64.2154 60.0736 64.3984 60.1127 64.5824 60.105Z" fill="white"/>
<path d="M67.6374 58.1613C67.6293 57.6516 67.741 57.1471 67.9634 56.6884C68.1638 56.2751 68.4779 55.9275 68.869 55.6864C69.2781 55.4454 69.7466 55.3241 70.2213 55.3363C70.559 55.3227 70.8958 55.3802 71.2099 55.505C71.5239 55.6298 71.8083 55.8191 72.0446 56.0607C72.5313 56.5816 72.8031 57.2673 72.8053 57.9802V58.282C72.8184 58.7909 72.7109 59.2956 72.4914 59.7549C72.2976 60.1726 71.9819 60.5219 71.5858 60.7569C71.1772 60.9991 70.7082 61.1205 70.2334 61.107C69.8821 61.1231 69.5315 61.0623 69.2062 60.9288C68.8808 60.7954 68.5885 60.5925 68.3498 60.3343C67.8667 59.7618 67.613 59.0306 67.6374 58.282V58.1613ZM68.8448 58.2699C68.8131 58.7466 68.9359 59.2207 69.195 59.6221C69.3099 59.7753 69.4596 59.899 69.6317 59.983C69.8039 60.067 69.9936 60.1088 70.1851 60.105C70.3767 60.1117 70.5668 60.0699 70.7379 59.9834C70.9089 59.8968 71.0552 59.7684 71.1632 59.61C71.4298 59.1761 71.5523 58.669 71.5133 58.1613C71.538 57.6912 71.411 57.2257 71.1511 56.8333C71.0431 56.6749 70.8968 56.5465 70.7258 56.4599C70.5548 56.3734 70.3646 56.3315 70.173 56.3383C69.9836 56.3364 69.7963 56.3792 69.6264 56.463C69.4565 56.5469 69.3087 56.6696 69.195 56.8212C68.9319 57.261 68.8097 57.7708 68.8448 58.282V58.2699Z" fill="white"/>
<path d="M74.9787 55.4329V56.0124C75.1799 55.7882 75.4282 55.6113 75.7058 55.4944C75.9835 55.3775 76.2836 55.3235 76.5846 55.3363C76.8957 55.3056 77.2088 55.3699 77.4826 55.5208C77.7564 55.6717 77.9779 55.902 78.1181 56.1814C78.3066 55.9075 78.5619 55.6861 78.8598 55.5382C79.1577 55.3904 79.4884 55.3209 79.8206 55.3363C80.0714 55.3148 80.3238 55.349 80.5598 55.4367C80.7957 55.5244 81.0093 55.6633 81.1851 55.8434C81.5187 56.268 81.6823 56.8017 81.6439 57.3404V60.9622H80.4364V57.3404C80.4631 57.0628 80.3809 56.7858 80.207 56.5678C80.1027 56.4745 79.9801 56.4038 79.8472 56.3601C79.7142 56.3165 79.5736 56.3009 79.4342 56.3142C79.1852 56.3086 78.9419 56.3897 78.746 56.5436C78.5623 56.7039 78.4283 56.9133 78.3596 57.1472V60.9622H77.1521V57.3404C77.1679 57.2055 77.1528 57.0688 77.1078 56.9407C77.0629 56.8125 76.9893 56.6963 76.8926 56.6009C76.796 56.5055 76.6789 56.4333 76.5502 56.3899C76.4215 56.3465 76.2846 56.333 76.1499 56.3504C75.9319 56.3372 75.7148 56.3886 75.5258 56.4981C75.3368 56.6076 75.1843 56.7704 75.0874 56.9661V60.9984H73.8799V55.4329H74.9787Z" fill="white"/>
<path d="M84.1432 55.433V56.0124C84.3439 55.7875 84.5921 55.6102 84.8699 55.4932C85.1477 55.3763 85.4481 55.3227 85.7492 55.3364C86.0588 55.3047 86.3706 55.3688 86.6427 55.5199C86.9147 55.671 87.1339 55.9019 87.2706 56.1814C87.4626 55.9082 87.7203 55.6876 88.0199 55.5399C88.3195 55.3922 88.6514 55.3222 88.9852 55.3364C89.2357 55.3173 89.4875 55.3527 89.723 55.4403C89.9586 55.5278 90.1723 55.6653 90.3496 55.8434C90.6833 56.2681 90.8469 56.8018 90.8085 57.3404V60.9622H89.601V57.3404C89.6217 57.0635 89.54 56.7886 89.3716 56.5678C89.2672 56.4745 89.1447 56.4038 89.0117 56.3602C88.8787 56.3165 88.7381 56.3009 88.5988 56.3142C88.346 56.3088 88.099 56.3897 87.8985 56.5436C87.7221 56.7079 87.5929 56.9163 87.5241 57.1473V60.9622H86.3167V57.3404C86.3325 57.2055 86.3173 57.0688 86.2724 56.9407C86.2274 56.8126 86.1538 56.6964 86.0572 56.6009C85.9606 56.5055 85.8435 56.4333 85.7148 56.3899C85.5861 56.3465 85.4492 56.333 85.3145 56.3505C85.0962 56.3357 84.8784 56.3864 84.6891 56.496C84.4998 56.6057 84.3476 56.7694 84.2519 56.9662V60.9984H83.0444V55.433H84.1432Z" fill="white"/>
<path d="M94.576 61.095C94.2216 61.1101 93.8679 61.0513 93.5374 60.9224C93.2069 60.7936 92.9068 60.5975 92.6561 60.3465C92.4047 60.0818 92.2097 59.7686 92.0831 59.4262C91.9565 59.0838 91.9008 58.7191 91.9196 58.3545V58.2097C91.9138 57.6937 92.0209 57.1828 92.2335 56.7127C92.432 56.2949 92.7463 55.9429 93.1391 55.6986C93.5269 55.4582 93.9749 55.3327 94.4311 55.3364C94.7606 55.3162 95.0904 55.3708 95.3957 55.4963C95.701 55.6217 95.9739 55.8147 96.194 56.0607C96.6394 56.6486 96.8581 57.3772 96.8098 58.1131V58.6081H93.1874C93.2052 59.0171 93.3678 59.4064 93.6462 59.7066C93.7797 59.838 93.9383 59.941 94.1126 60.0095C94.287 60.078 94.4733 60.1105 94.6605 60.105C94.9333 60.111 95.2035 60.0503 95.4475 59.9283C95.6916 59.8063 95.9022 59.6266 96.0612 59.4048L96.7374 60.0568C96.5081 60.3843 96.2011 60.6498 95.8438 60.8294C95.4476 61.0153 95.0135 61.1063 94.576 61.095ZM94.4311 56.3384C94.2742 56.3343 94.1183 56.3646 93.9744 56.4271C93.8304 56.4897 93.7019 56.583 93.5979 56.7006C93.369 56.9879 93.2304 57.3366 93.1995 57.7026H95.6144V57.606C95.6139 57.2589 95.4946 56.9223 95.2763 56.6523C95.1676 56.5405 95.0353 56.4544 94.8891 56.4001C94.7429 56.3458 94.5865 56.3247 94.4311 56.3384Z" fill="white"/>
<path d="M100.698 56.5799C100.525 56.5613 100.351 56.5613 100.179 56.5799C99.9418 56.5546 99.703 56.6053 99.4968 56.7247C99.2906 56.844 99.1277 57.0259 99.0317 57.2439V61.0468H97.8242V55.4813H99.0317V56.1091C99.1491 55.8908 99.3232 55.7083 99.5358 55.5809C99.7483 55.4534 99.9913 55.3856 100.239 55.3847C100.391 55.3805 100.543 55.4051 100.686 55.4572L100.698 56.5799Z" fill="white"/>
<path d="M103.668 60.105C103.952 60.1133 104.228 60.0141 104.441 59.8273C104.542 59.7451 104.625 59.6423 104.683 59.5257C104.741 59.4091 104.774 59.2815 104.779 59.1513H105.987C105.974 59.5018 105.861 59.8413 105.661 60.1291C105.456 60.4356 105.172 60.6816 104.84 60.8414C104.49 61.013 104.106 61.0999 103.717 61.095C103.373 61.1088 103.031 61.0493 102.712 60.9202C102.394 60.7911 102.106 60.5955 101.869 60.3465C101.384 59.7622 101.138 59.016 101.181 58.2579V58.1251C101.144 57.3861 101.39 56.6609 101.869 56.0969C102.102 55.8411 102.388 55.6402 102.707 55.5086C103.027 55.3771 103.372 55.3182 103.717 55.3363C104.311 55.3126 104.891 55.5203 105.335 55.9158C105.54 56.1102 105.703 56.3441 105.815 56.6035C105.928 56.8629 105.986 57.1423 105.987 57.4249H104.779C104.776 57.131 104.659 56.8497 104.453 56.6402C104.35 56.5391 104.227 56.4602 104.092 56.4083C103.957 56.3564 103.813 56.3326 103.668 56.3384C103.49 56.3297 103.312 56.3647 103.15 56.4405C102.988 56.5162 102.847 56.6303 102.739 56.773C102.481 57.1702 102.363 57.6413 102.401 58.113V58.282C102.367 58.7556 102.481 59.2277 102.727 59.6342C102.831 59.786 102.972 59.9089 103.137 59.9913C103.301 60.0736 103.484 60.1127 103.668 60.105Z" fill="white"/>
<path d="M109.343 61.095C108.988 61.1115 108.634 61.0534 108.304 60.9245C107.973 60.7956 107.673 60.5987 107.423 60.3465C107.172 60.0817 106.977 59.7686 106.85 59.4262C106.724 59.0837 106.668 58.7191 106.687 58.3545V58.2096C106.675 57.6931 106.782 57.1808 107.001 56.7126C107.199 56.2948 107.513 55.9429 107.906 55.6985C108.294 55.4582 108.742 55.3326 109.198 55.3363C109.527 55.3179 109.857 55.3734 110.162 55.4987C110.467 55.6241 110.74 55.8161 110.961 56.0607C111.407 56.6485 111.625 57.3772 111.577 58.113V58.608H107.954C107.972 59.017 108.135 59.4064 108.413 59.7066C108.546 59.8385 108.705 59.942 108.879 60.0105C109.054 60.079 109.24 60.1111 109.428 60.105C109.7 60.1109 109.971 60.0503 110.215 59.9283C110.459 59.8062 110.669 59.6266 110.828 59.4048L111.504 60.0567C111.275 60.3843 110.968 60.6498 110.611 60.8294C110.214 61.014 109.78 61.1049 109.343 61.095ZM109.198 56.3384C109.041 56.3317 108.884 56.3608 108.74 56.4235C108.596 56.4863 108.467 56.581 108.365 56.7006C108.131 56.9852 107.992 57.3353 107.967 57.7026H110.382V57.606C110.375 57.26 110.256 56.9254 110.043 56.6523C109.934 56.5418 109.801 56.4566 109.655 56.4024C109.509 56.3482 109.353 56.3264 109.198 56.3384Z" fill="white"/>
<path d="M119.474 59.2601H116.576L115.972 60.9985H114.62L117.446 53.5135H118.653L121.479 60.9985H120.126L119.474 59.2601ZM116.938 58.2098H119.112L118.025 55.1071L116.938 58.2098Z" fill="white"/>
<path d="M121.974 58.1733C121.932 57.4362 122.145 56.7072 122.577 56.1089C122.765 55.8597 123.01 55.6594 123.292 55.5249C123.574 55.3904 123.883 55.3257 124.195 55.3362C124.479 55.3225 124.763 55.3754 125.023 55.4907C125.283 55.606 125.512 55.7805 125.693 56.0002L125.753 55.4328H126.876V60.8293C126.892 61.1496 126.839 61.4695 126.72 61.7674C126.601 62.0653 126.42 62.3342 126.188 62.5556C125.681 62.9964 125.023 63.2217 124.352 63.1834C123.937 63.1847 123.525 63.0983 123.145 62.9299C122.795 62.7943 122.49 62.5644 122.263 62.2659L122.855 61.5174C123.021 61.7335 123.235 61.9082 123.481 62.0276C123.726 62.147 123.995 62.2079 124.268 62.2055C124.629 62.2225 124.983 62.1016 125.258 61.8675C125.38 61.7346 125.474 61.5784 125.534 61.4082C125.594 61.2381 125.619 61.0576 125.608 60.8775V60.5033C125.428 60.7023 125.205 60.8587 124.956 60.961C124.708 61.0633 124.44 61.109 124.171 61.0949C123.863 61.1025 123.558 61.0363 123.281 60.9019C123.003 60.7675 122.762 60.5688 122.577 60.3222C122.138 59.6953 121.925 58.9374 121.974 58.1733ZM123.181 58.282C123.153 58.7452 123.271 59.2056 123.519 59.5979C123.623 59.7537 123.766 59.8801 123.933 59.9647C124.1 60.0493 124.286 60.0893 124.473 60.0808C124.697 60.0961 124.92 60.0489 125.119 59.9444C125.317 59.8399 125.482 59.6823 125.596 59.4892V57.0747C125.49 56.8745 125.329 56.7083 125.133 56.5952C124.936 56.482 124.712 56.4265 124.485 56.4348C124.297 56.4288 124.111 56.4711 123.944 56.5578C123.777 56.6444 123.635 56.7726 123.531 56.9298C123.288 57.3381 123.167 57.8071 123.181 58.282Z" fill="white"/>
<path d="M130.595 61.095C130.239 61.1117 129.883 61.0538 129.55 60.9249C129.217 60.796 128.915 60.599 128.663 60.3465C128.414 60.0802 128.22 59.7668 128.094 59.4247C127.967 59.0827 127.91 58.7188 127.926 58.3545V58.2096C127.919 57.6922 128.03 57.18 128.252 56.7126C128.451 56.2948 128.765 55.9429 129.158 55.6985C129.546 55.4582 129.994 55.3326 130.45 55.3363C130.778 55.3162 131.106 55.371 131.409 55.4965C131.712 55.622 131.983 55.8149 132.201 56.0607C132.656 56.6443 132.879 57.375 132.829 58.113V58.608H129.206C129.219 59.0182 129.382 59.4094 129.665 59.7066C129.798 59.8385 129.957 59.942 130.131 60.0105C130.306 60.079 130.492 60.1111 130.679 60.105C130.952 60.1099 131.222 60.0488 131.466 59.9269C131.71 59.8049 131.92 59.6258 132.08 59.4048L132.744 60.0567C132.518 60.3828 132.216 60.6481 131.863 60.8294C131.466 61.014 131.032 61.1049 130.595 61.095ZM130.45 56.3384C130.293 56.3317 130.136 56.3608 129.992 56.4235C129.847 56.4863 129.719 56.581 129.617 56.7006C129.379 56.9836 129.235 57.334 129.206 57.7026H131.621V57.606C131.624 57.2603 131.509 56.9239 131.295 56.6523C131.183 56.5386 131.046 56.4514 130.896 56.3971C130.746 56.3428 130.585 56.3227 130.426 56.3384H130.45Z" fill="white"/>
<path d="M134.954 55.4328V56.0727C135.148 55.8338 135.396 55.643 135.676 55.5153C135.957 55.3876 136.263 55.3263 136.572 55.3362C137.779 55.3362 138.322 56.0002 138.346 57.3162V60.9983H137.139V57.3765C137.156 57.0962 137.075 56.8187 136.91 56.5918C136.81 56.4992 136.691 56.4287 136.562 56.385C136.433 56.3413 136.297 56.3254 136.161 56.3383C135.927 56.332 135.697 56.3936 135.497 56.5158C135.298 56.6379 135.138 56.8153 135.038 57.0264V60.9862H133.831V55.4208L134.954 55.4328Z" fill="white"/>
<path d="M141.933 60.105C142.216 60.1133 142.492 60.0141 142.706 59.8273C142.807 59.7451 142.889 59.6423 142.948 59.5257C143.006 59.4091 143.039 59.2815 143.044 59.1513H144.251C144.239 59.5018 144.126 59.8413 143.925 60.1291C143.72 60.4356 143.437 60.6816 143.104 60.8414C142.755 61.013 142.37 61.0999 141.981 61.095C141.638 61.1088 141.295 61.0493 140.977 60.9202C140.658 60.7911 140.371 60.5955 140.134 60.3465C139.653 59.7604 139.412 59.0144 139.458 58.2579V58.1251C139.416 57.3876 139.658 56.6621 140.134 56.0969C140.366 55.8411 140.652 55.6402 140.972 55.5086C141.291 55.3771 141.636 55.3182 141.981 55.3363C142.575 55.3126 143.155 55.5203 143.599 55.9158C143.804 56.1102 143.968 56.3441 144.08 56.6035C144.192 56.8629 144.25 57.1423 144.251 57.4249H143.044C143.041 57.131 142.924 56.8497 142.718 56.6402C142.614 56.5391 142.492 56.4602 142.357 56.4083C142.222 56.3564 142.077 56.3326 141.933 56.3384C141.754 56.3297 141.576 56.3647 141.414 56.4405C141.252 56.5162 141.111 56.6303 141.003 56.773C140.752 57.1727 140.633 57.6418 140.665 58.113V58.282C140.632 58.7556 140.746 59.2277 140.991 59.6342C141.095 59.786 141.237 59.9089 141.401 59.9913C141.566 60.0736 141.749 60.1127 141.933 60.105Z" fill="white"/>
<path d="M147.101 59.2117L148.236 55.433H149.564L147.33 61.9039C147.243 62.298 147.025 62.651 146.711 62.9053C146.398 63.1596 146.007 63.3002 145.604 63.3043C145.399 63.2978 145.196 63.2654 145 63.2077V62.2419H145.241C145.491 62.2607 145.74 62.2016 145.954 62.0729C146.132 61.9203 146.262 61.7189 146.328 61.4934L146.509 61.0105L144.553 55.4813H145.906L147.101 59.2117Z" fill="white"/>
<path d="M40.7974 18.2672V44.9102L29.323 44.8478V43.554C27.5038 44.2831 25.5953 44.766 23.6482 44.9897C19.7426 45.442 15.7893 44.7624 12.2589 43.0319C10.4085 42.1271 8.70879 40.9423 7.21969 39.5192C5.04468 37.5248 3.3058 35.1019 2.11237 32.403C0.922478 29.7608 0.220716 26.925 0.0410542 24.0327C-0.13021 21.1381 0.235355 18.2368 1.11928 15.4752C2.01328 12.6429 3.45986 10.0159 5.37538 7.74613C7.24889 5.53504 9.5852 3.76247 12.2192 2.55371C17.6254 0.02956 23.7375 -0.549784 29.5216 0.913692C32.3223 1.60042 34.9377 2.89457 37.1826 4.70445L29.1982 14.1132C27.8813 13.2376 26.3908 12.6568 24.8286 12.4108C23.4 12.1834 21.9428 12.2045 20.5214 12.4732C19.2227 12.7125 17.9725 13.1651 16.8214 13.8125C15.8275 14.3434 14.9782 15.109 14.3472 16.0426C13.6123 17.1314 13.0513 18.328 12.6845 19.5894C12.3201 20.8188 12.1534 22.0984 12.1908 23.3801C12.2249 24.6288 12.4904 25.8602 12.9739 27.012C13.4836 28.2016 14.2603 29.2579 15.2438 30.0991C16.1566 31.0028 17.2598 31.691 18.4728 32.1136C19.6321 32.519 20.8638 32.6756 22.0876 32.5733C23.3216 32.4685 24.5258 32.1377 25.6401 31.5972C26.8203 31.0186 27.8631 30.1944 28.6988 29.1798L28.9314 28.879H23.512L25.6684 18.182L40.7974 18.2672Z" fill="white"/>
<path d="M72.7236 31.8923V44.7229H43.4189V0.425659H72.7236V13.2563H55.6538V17.2287H69.9259V27.9824H55.6538V31.8923H72.7236Z" fill="white"/>
<path d="M113.271 35.7454C113.072 36.0511 112.858 36.3466 112.629 36.6307C112.357 36.9768 112.062 37.3116 111.784 37.6351C111.506 37.9586 111.216 38.282 110.915 38.5828C110.684 38.8302 110.44 39.0651 110.183 39.2865C108.123 41.1569 105.733 42.6288 103.135 43.6277C100.625 44.5935 97.9594 45.0898 95.2701 45.0918C92.2321 45.0729 89.2333 44.4055 86.4741 43.134C83.5781 41.8467 80.9795 39.9746 78.8416 37.6351C77.0038 35.5179 75.5639 33.0859 74.5911 30.4565C72.5158 24.9573 72.6603 18.8665 74.994 13.4719C76.2391 10.5625 78.0861 7.94963 80.4135 5.8053C82.4487 3.92953 84.821 2.45645 87.4048 1.46408C89.865 0.503896 92.4817 0.00750673 95.1225 0C98.2026 0.00234773 101.248 0.645894 104.066 1.88969C107.023 3.19988 109.643 5.16569 111.727 7.63824L102.522 16.0653C101.609 15.0157 100.482 14.1731 99.2163 13.5938C97.9509 13.0144 96.5766 12.7117 95.185 12.7058C92.8109 12.7204 90.5264 13.614 88.7725 15.2141C87.7607 16.1504 86.9665 17.2971 86.4458 18.5735C85.915 19.8092 85.6371 21.1386 85.6286 22.4835C85.6312 23.6807 85.8385 24.8687 86.2415 25.9961C86.6521 27.1629 87.295 28.2343 88.1312 29.1456C89.0316 30.2338 90.1691 31.1015 91.4566 31.6823C92.6657 32.2221 93.9744 32.5024 95.2985 32.5051C96.4607 32.5029 97.6133 32.2954 98.7033 31.8922C99.8337 31.483 100.865 30.8389 101.728 30.0025C102.035 29.7626 102.309 29.4841 102.545 29.174C102.752 28.9122 102.941 28.6373 103.113 28.3512L113.271 35.7454Z" fill="white"/>
<path d="M139.198 0.425659L152.25 44.7229H140.015L138.671 39.4681H125.914L124.631 44.7229H112.374L125.426 0.425659H139.198ZM134.71 27.0971L132.32 16.8825L129.875 27.0971H134.71Z" fill="white"/>
</svg>
