<svg width="52" height="52" viewBox="0 0 52 52" fill="none" xmlns="http://www.w3.org/2000/svg">
<path d="M2.04376 26.0011C2.04256 30.3242 3.17194 34.5454 5.31944 38.266L1.83838 50.9783L14.8454 47.5672C18.443 49.526 22.4738 50.5524 26.5699 50.5527H26.5806C40.1027 50.5527 51.11 39.5474 51.1157 26.0204C51.1183 19.4656 48.5685 13.3019 43.9357 8.66472C39.3037 4.0279 33.1434 1.47296 26.5797 1.46997C13.056 1.46997 2.04954 12.4747 2.04396 26.0011" fill="url(#paint0_linear_1_172)"/>
<path d="M1.16794 25.9931C1.16655 30.4718 2.3364 34.844 4.56047 38.6978L0.95459 51.8658L14.428 48.3324C18.1403 50.3569 22.3201 51.4243 26.5732 51.4259H26.5842C40.5914 51.4259 51.994 40.0247 52 26.0135C52.0024 19.2232 49.3608 12.8379 44.5625 8.03457C39.7637 3.23182 33.383 0.584945 26.5842 0.582153C12.5746 0.582153 1.17353 11.9818 1.16794 25.9931ZM9.19184 38.0341L8.68877 37.2354C6.57397 33.8721 5.45775 29.9856 5.45935 25.9947C5.46373 14.3488 14.9398 4.87396 26.5921 4.87396C32.2351 4.87635 37.5382 7.0765 41.5269 11.0684C45.5154 15.0606 47.7102 20.3675 47.7088 26.0119C47.7036 37.6578 38.2273 47.1339 26.5842 47.1339H26.5758C22.7847 47.1319 19.0665 46.1136 15.824 44.1892L15.0523 43.7315L7.05691 45.8282L9.19184 38.0341Z" fill="url(#paint1_linear_1_172)"/>
<path d="M20.232 15.3696C19.7563 14.312 19.2556 14.2906 18.8032 14.2721C18.4327 14.2561 18.0092 14.2573 17.5861 14.2573C17.1625 14.2573 16.4744 14.4167 15.8928 15.0519C15.3106 15.6877 13.6699 17.2241 13.6699 20.349C13.6699 23.474 15.9456 26.4942 16.2629 26.9184C16.5805 27.3418 20.6562 33.9598 27.111 36.5057C32.4756 38.6215 33.5673 38.2007 34.7315 38.0946C35.896 37.9889 38.489 36.5586 39.018 35.0754C39.5473 33.5924 39.5474 32.3212 39.3886 32.0556C39.2299 31.7909 38.8064 31.632 38.1713 31.3145C37.5362 30.997 34.4139 29.4601 33.8319 29.2481C33.2496 29.0363 32.8263 28.9306 32.4028 29.5666C31.9793 30.2016 30.7632 31.632 30.3925 32.0556C30.0222 32.4802 29.6515 32.533 29.0166 32.2153C28.3812 31.8966 26.336 31.2267 23.9095 29.0631C22.0216 27.3795 20.7471 25.3004 20.3766 24.6644C20.0061 24.0294 20.3369 23.6852 20.6554 23.3687C20.9407 23.0841 21.2906 22.627 21.6085 22.2562C21.9251 21.8853 22.0308 21.6206 22.2426 21.197C22.4545 20.773 22.3484 20.4021 22.1899 20.0844C22.0308 19.7667 20.7967 16.6254 20.232 15.3696Z" fill="white"/>
<defs>
<linearGradient id="paint0_linear_1_172" x1="2465.71" y1="4952.3" x2="2465.71" y2="1.46997" gradientUnits="userSpaceOnUse">
<stop stop-color="#1FAF38"/>
<stop offset="1" stop-color="#60D669"/>
</linearGradient>
<linearGradient id="paint1_linear_1_172" x1="2553.23" y1="5128.95" x2="2553.23" y2="0.582153" gradientUnits="userSpaceOnUse">
<stop stop-color="#F9F9F9"/>
<stop offset="1" stop-color="white"/>
</linearGradient>
</defs>
</svg>
