<svg width="193" height="33" viewBox="0 0 193 33" fill="none" xmlns="http://www.w3.org/2000/svg">
<g filter="url(#filter0_d_1_180)">
<path d="M175.227 8.48205C175.227 7.71225 176.061 7.23113 176.727 7.61603L187.977 14.1112C188.644 14.4961 188.644 15.4584 187.977 15.8433L176.727 22.3385C176.061 22.7234 175.227 22.2422 175.227 21.4724L175.227 8.48205Z" fill="#60D669"/>
<rect x="1.5" y="0.5" width="178" height="30" rx="4.5" fill="white" stroke="#60D669"/>
<path d="M21.3614 20H19.6037L15.6239 13.9863V20H13.8663V11.2243H15.6239L19.6037 17.2505V11.2243H21.3614V20ZM29.5639 16.3717C29.5639 16.6228 29.5472 16.8488 29.5137 17.0497H24.4291C24.471 17.5519 24.6467 17.9452 24.9564 18.2298C25.2661 18.5144 25.6469 18.6567 26.0989 18.6567C26.7517 18.6567 27.2162 18.3763 27.4924 17.8155H29.3882C29.1873 18.4851 28.8023 19.0375 28.2332 19.4727C27.664 19.8996 26.9651 20.113 26.1365 20.113C25.467 20.113 24.8643 19.9665 24.3287 19.6736C23.8014 19.3723 23.3871 18.9496 23.0858 18.4056C22.7928 17.8615 22.6464 17.2338 22.6464 16.5224C22.6464 15.8026 22.7928 15.1707 23.0858 14.6266C23.3787 14.0826 23.7888 13.6641 24.3161 13.3712C24.8434 13.0782 25.4502 12.9318 26.1365 12.9318C26.7977 12.9318 27.3878 13.074 27.9067 13.3586C28.434 13.6432 28.84 14.0491 29.1245 14.5764C29.4175 15.0953 29.5639 15.6938 29.5639 16.3717ZM27.7435 15.8695C27.7352 15.4176 27.5719 15.0577 27.2539 14.7898C26.9358 14.5136 26.5466 14.3755 26.0863 14.3755C25.6511 14.3755 25.2828 14.5095 24.9815 14.7773C24.6886 15.0367 24.5086 15.4008 24.4417 15.8695H27.7435ZM37.3125 16.3717C37.3125 16.6228 37.2957 16.8488 37.2623 17.0497H32.1777C32.2195 17.5519 32.3953 17.9452 32.7049 18.2298C33.0146 18.5144 33.3954 18.6567 33.8474 18.6567C34.5003 18.6567 34.9648 18.3763 35.241 17.8155H37.1367C36.9358 18.4851 36.5508 19.0375 35.9817 19.4727C35.4126 19.8996 34.7137 20.113 33.8851 20.113C33.2155 20.113 32.6129 19.9665 32.0772 19.6736C31.5499 19.3723 31.1356 18.9496 30.8343 18.4056C30.5414 17.8615 30.3949 17.2338 30.3949 16.5224C30.3949 15.8026 30.5414 15.1707 30.8343 14.6266C31.1272 14.0826 31.5374 13.6641 32.0647 13.3712C32.592 13.0782 33.1988 12.9318 33.8851 12.9318C34.5463 12.9318 35.1364 13.074 35.6553 13.3586C36.1826 13.6432 36.5885 14.0491 36.8731 14.5764C37.166 15.0953 37.3125 15.6938 37.3125 16.3717ZM35.4921 15.8695C35.4837 15.4176 35.3205 15.0577 35.0024 14.7898C34.6844 14.5136 34.2952 14.3755 33.8349 14.3755C33.3996 14.3755 33.0314 14.5095 32.7301 14.7773C32.4371 15.0367 32.2572 15.4008 32.1902 15.8695H35.4921ZM38.1434 16.4973C38.1434 15.7942 38.2815 15.1707 38.5577 14.6266C38.8423 14.0826 39.2273 13.6641 39.7128 13.3712C40.1982 13.0782 40.7381 12.9318 41.3323 12.9318C41.7843 12.9318 42.2153 13.0322 42.6254 13.2331C43.0356 13.4256 43.362 13.685 43.6047 14.0115V10.7096H45.3875V20H43.6047V18.9705C43.3871 19.3137 43.0816 19.5899 42.6882 19.7991C42.2948 20.0084 41.8387 20.113 41.3198 20.113C40.7339 20.113 40.1982 19.9623 39.7128 19.661C39.2273 19.3597 38.8423 18.937 38.5577 18.393C38.2815 17.8406 38.1434 17.2087 38.1434 16.4973ZM43.6173 16.5224C43.6173 16.0955 43.5336 15.7314 43.3662 15.4301C43.1988 15.1204 42.9728 14.8861 42.6882 14.7271C42.4036 14.5597 42.0981 14.476 41.7717 14.476C41.4453 14.476 41.144 14.5555 40.8678 14.7145C40.5916 14.8735 40.3656 15.1079 40.1898 15.4176C40.0224 15.7189 39.9388 16.0788 39.9388 16.4973C39.9388 16.9158 40.0224 17.284 40.1898 17.6021C40.3656 17.9118 40.5916 18.1503 40.8678 18.3177C41.1524 18.4851 41.4537 18.5688 41.7717 18.5688C42.0981 18.5688 42.4036 18.4893 42.6882 18.3302C42.9728 18.1628 43.1988 17.9285 43.3662 17.6272C43.5336 17.3175 43.6173 16.9492 43.6173 16.5224ZM57.3647 11.2369V20H55.6071V16.2713H51.8533V20H50.0956V11.2369H51.8533V14.8401H55.6071V11.2369H57.3647ZM65.5603 16.3717C65.5603 16.6228 65.5436 16.8488 65.5101 17.0497H60.4255C60.4674 17.5519 60.6431 17.9452 60.9528 18.2298C61.2625 18.5144 61.6433 18.6567 62.0953 18.6567C62.7481 18.6567 63.2126 18.3763 63.4888 17.8155H65.3846C65.1837 18.4851 64.7987 19.0375 64.2296 19.4727C63.6604 19.8996 62.9615 20.113 62.1329 20.113C61.4634 20.113 60.8607 19.9665 60.3251 19.6736C59.7978 19.3723 59.3835 18.9496 59.0822 18.4056C58.7892 17.8615 58.6428 17.2338 58.6428 16.5224C58.6428 15.8026 58.7892 15.1707 59.0822 14.6266C59.3751 14.0826 59.7852 13.6641 60.3125 13.3712C60.8398 13.0782 61.4466 12.9318 62.1329 12.9318C62.7942 12.9318 63.3842 13.074 63.9031 13.3586C64.4304 13.6432 64.8364 14.0491 65.1209 14.5764C65.4139 15.0953 65.5603 15.6938 65.5603 16.3717ZM63.7399 15.8695C63.7316 15.4176 63.5684 15.0577 63.2503 14.7898C62.9323 14.5136 62.5431 14.3755 62.0827 14.3755C61.6475 14.3755 61.2792 14.5095 60.9779 14.7773C60.685 15.0367 60.505 15.4008 60.4381 15.8695H63.7399ZM68.6009 10.7096V20H66.8433V10.7096H68.6009ZM72.0951 14.0491C72.3211 13.7311 72.6308 13.4674 73.0242 13.2582C73.4259 13.0406 73.8821 12.9318 74.3926 12.9318C74.9869 12.9318 75.5225 13.0782 75.9996 13.3712C76.485 13.6641 76.8659 14.0826 77.1421 14.6266C77.4266 15.1623 77.5689 15.7858 77.5689 16.4973C77.5689 17.2087 77.4266 17.8406 77.1421 18.393C76.8659 18.937 76.485 19.3597 75.9996 19.661C75.5225 19.9623 74.9869 20.113 74.3926 20.113C73.8821 20.113 73.4301 20.0084 73.0367 19.7991C72.6517 19.5899 72.3378 19.3262 72.0951 19.0082V23.3144H70.3375V13.0447H72.0951V14.0491ZM75.7736 16.4973C75.7736 16.0788 75.6857 15.7189 75.51 15.4176C75.3426 15.1079 75.1166 14.8735 74.832 14.7145C74.5558 14.5555 74.2545 14.476 73.9281 14.476C73.61 14.476 73.3087 14.5597 73.0242 14.7271C72.748 14.8861 72.522 15.1204 72.3462 15.4301C72.1788 15.7398 72.0951 16.1039 72.0951 16.5224C72.0951 16.9409 72.1788 17.3049 72.3462 17.6146C72.522 17.9243 72.748 18.1628 73.0242 18.3302C73.3087 18.4893 73.61 18.5688 73.9281 18.5688C74.2545 18.5688 74.5558 18.4851 74.832 18.3177C75.1166 18.1503 75.3426 17.9118 75.51 17.6021C75.6857 17.2924 75.7736 16.9241 75.7736 16.4973ZM81.2943 10.9356C82.1648 10.9356 82.8636 11.1741 83.3909 11.6512C83.9266 12.1199 84.1944 12.7685 84.1944 13.5972C84.1944 14.4174 83.9308 15.0451 83.4035 15.4803C82.8762 15.9072 82.1773 16.1206 81.3069 16.1206L81.2566 17.0873H79.7124L79.6497 14.953H80.2146C80.9428 14.953 81.5035 14.8568 81.8969 14.6643C82.2903 14.4718 82.487 14.1203 82.487 13.6097C82.487 13.2414 82.3782 12.9485 82.1606 12.7309C81.9513 12.5133 81.6626 12.4045 81.2943 12.4045C80.9093 12.4045 80.608 12.5091 80.3904 12.7183C80.1811 12.9276 80.0765 13.2163 80.0765 13.5846H78.4193C78.4109 13.074 78.5197 12.6179 78.7457 12.2161C78.9717 11.8144 79.3023 11.5005 79.7375 11.2745C80.1811 11.0486 80.7001 10.9356 81.2943 10.9356ZM80.4783 20.0879C80.1602 20.0879 79.8966 19.9916 79.6873 19.7991C79.4864 19.5983 79.386 19.3513 79.386 19.0584C79.386 18.7655 79.4864 18.5227 79.6873 18.3302C79.8966 18.1294 80.1602 18.0289 80.4783 18.0289C80.7879 18.0289 81.0432 18.1294 81.2441 18.3302C81.445 18.5227 81.5454 18.7655 81.5454 19.0584C81.5454 19.3513 81.445 19.5983 81.2441 19.7991C81.0432 19.9916 80.7879 20.0879 80.4783 20.0879ZM88.2667 15.6184C88.2667 14.7647 88.4592 13.9989 88.8442 13.3209C89.2292 12.6346 89.7524 12.099 90.4136 11.714C91.0831 11.329 91.8239 11.1364 92.6357 11.1364C93.5899 11.1364 94.4227 11.3666 95.1341 11.827C95.8455 12.2873 96.3644 12.9401 96.6909 13.7855H95.3224C95.0797 13.2582 94.7282 12.8522 94.2678 12.5677C93.8159 12.2831 93.2718 12.1408 92.6357 12.1408C92.0247 12.1408 91.4765 12.2831 90.9911 12.5677C90.5056 12.8522 90.1248 13.2582 89.8486 13.7855C89.5724 14.3044 89.4343 14.9154 89.4343 15.6184C89.4343 16.3131 89.5724 16.9241 89.8486 17.4514C90.1248 17.9703 90.5056 18.3721 90.9911 18.6567C91.4765 18.9412 92.0247 19.0835 92.6357 19.0835C93.2718 19.0835 93.8159 18.9454 94.2678 18.6692C94.7282 18.3846 95.0797 17.9787 95.3224 17.4514H96.6909C96.3644 18.2884 95.8455 18.937 95.1341 19.3974C94.4227 19.8493 93.5899 20.0753 92.6357 20.0753C91.8239 20.0753 91.0831 19.887 90.4136 19.5104C89.7524 19.1254 89.2292 18.5939 88.8442 17.9159C88.4592 17.238 88.2667 16.4722 88.2667 15.6184ZM101.806 12.9945C102.325 12.9945 102.794 13.1075 103.212 13.3335C103.631 13.5511 103.957 13.8817 104.192 14.3253C104.434 14.7689 104.556 15.3088 104.556 15.9449V20H103.426V16.1081C103.426 15.4218 103.254 14.8986 102.911 14.5387C102.568 14.1705 102.099 13.9863 101.505 13.9863C100.902 13.9863 100.421 14.1747 100.061 14.5513C99.7098 14.9279 99.534 15.4762 99.534 16.196V20H98.3915V10.7096H99.534V14.0993C99.76 13.7478 100.07 13.4758 100.463 13.2833C100.865 13.0908 101.313 12.9945 101.806 12.9945ZM105.995 16.5349C105.995 15.8319 106.137 15.2167 106.422 14.6894C106.707 14.1537 107.096 13.7394 107.59 13.4465C108.092 13.1536 108.648 13.0071 109.259 13.0071C109.862 13.0071 110.385 13.1368 110.829 13.3963C111.272 13.6557 111.603 13.9822 111.821 14.3755V13.1201H112.976V20H111.821V18.7194C111.595 19.1212 111.256 19.456 110.804 19.7238C110.36 19.9833 109.841 20.113 109.247 20.113C108.636 20.113 108.083 19.9623 107.59 19.661C107.096 19.3597 106.707 18.937 106.422 18.393C106.137 17.849 105.995 17.2296 105.995 16.5349ZM111.821 16.5475C111.821 16.0286 111.716 15.5766 111.507 15.1916C111.297 14.8066 111.013 14.5136 110.653 14.3128C110.301 14.1035 109.912 13.9989 109.485 13.9989C109.059 13.9989 108.669 14.0993 108.318 14.3002C107.966 14.5011 107.686 14.794 107.477 15.179C107.267 15.564 107.163 16.016 107.163 16.5349C107.163 17.0622 107.267 17.5226 107.477 17.9159C107.686 18.3009 107.966 18.5981 108.318 18.8073C108.669 19.0082 109.059 19.1086 109.485 19.1086C109.912 19.1086 110.301 19.0082 110.653 18.8073C111.013 18.5981 111.297 18.3009 111.507 17.9159C111.716 17.5226 111.821 17.0664 111.821 16.5475ZM116.3 14.0617V18.1168C116.3 18.4516 116.371 18.6901 116.513 18.8324C116.656 18.9663 116.902 19.0333 117.254 19.0333H118.095V20H117.066C116.43 20 115.952 19.8535 115.634 19.5606C115.316 19.2676 115.157 18.7864 115.157 18.1168V14.0617H114.266V13.1201H115.157V11.3875H116.3V13.1201H118.095V14.0617H116.3ZM133.824 11.2494L131.288 20H130.008L127.974 12.9569L125.865 20L124.597 20.0126L122.148 11.2494H123.366L125.275 18.6692L127.384 11.2494H128.664L130.673 18.6441L132.594 11.2494H133.824ZM135.665 12.0027C135.447 12.0027 135.263 11.9274 135.112 11.7767C134.962 11.6261 134.886 11.4419 134.886 11.2243C134.886 11.0067 134.962 10.8226 135.112 10.6719C135.263 10.5213 135.447 10.4459 135.665 10.4459C135.874 10.4459 136.05 10.5213 136.192 10.6719C136.343 10.8226 136.418 11.0067 136.418 11.2243C136.418 11.4419 136.343 11.6261 136.192 11.7767C136.05 11.9274 135.874 12.0027 135.665 12.0027ZM136.217 13.1201V20H135.075V13.1201H136.217ZM139.558 14.0617V18.1168C139.558 18.4516 139.629 18.6901 139.771 18.8324C139.913 18.9663 140.16 19.0333 140.512 19.0333H141.353V20H140.324C139.687 20 139.21 19.8535 138.892 19.5606C138.574 19.2676 138.415 18.7864 138.415 18.1168V14.0617H137.524V13.1201H138.415V11.3875H139.558V13.1201H141.353V14.0617H139.558ZM146.152 12.9945C146.671 12.9945 147.14 13.1075 147.558 13.3335C147.977 13.5511 148.303 13.8817 148.537 14.3253C148.78 14.7689 148.902 15.3088 148.902 15.9449V20H147.772V16.1081C147.772 15.4218 147.6 14.8986 147.257 14.5387C146.914 14.1705 146.445 13.9863 145.851 13.9863C145.248 13.9863 144.767 14.1747 144.407 14.5513C144.055 14.9279 143.88 15.4762 143.88 16.196V20H142.737V10.7096H143.88V14.0993C144.106 13.7478 144.415 13.4758 144.809 13.2833C145.21 13.0908 145.658 12.9945 146.152 12.9945ZM155.232 11.2494V16.786C155.232 17.5644 155.421 18.1419 155.797 18.5186C156.182 18.8952 156.714 19.0835 157.392 19.0835C158.061 19.0835 158.584 18.8952 158.961 18.5186C159.346 18.1419 159.538 17.5644 159.538 16.786V11.2494H160.681V16.7735C160.681 17.5016 160.534 18.1168 160.241 18.619C159.949 19.1128 159.551 19.4811 159.049 19.7238C158.555 19.9665 157.998 20.0879 157.379 20.0879C156.76 20.0879 156.199 19.9665 155.697 19.7238C155.203 19.4811 154.81 19.1128 154.517 18.619C154.232 18.1168 154.09 17.5016 154.09 16.7735V11.2494H155.232ZM165.022 20.113C164.495 20.113 164.022 20.0251 163.604 19.8493C163.185 19.6652 162.855 19.4141 162.612 19.0961C162.369 18.7696 162.235 18.3972 162.21 17.9787H163.39C163.424 18.3219 163.583 18.6023 163.867 18.8199C164.16 19.0375 164.541 19.1463 165.01 19.1463C165.445 19.1463 165.788 19.05 166.039 18.8575C166.29 18.665 166.416 18.4223 166.416 18.1294C166.416 17.8281 166.282 17.6063 166.014 17.464C165.746 17.3133 165.332 17.1668 164.771 17.0246C164.261 16.8906 163.842 16.7567 163.516 16.6228C163.198 16.4805 162.922 16.2755 162.687 16.0076C162.461 15.7314 162.348 15.3715 162.348 14.9279C162.348 14.5764 162.453 14.2542 162.662 13.9612C162.871 13.6683 163.168 13.4381 163.553 13.2707C163.938 13.095 164.378 13.0071 164.872 13.0071C165.633 13.0071 166.249 13.1996 166.717 13.5846C167.186 13.9696 167.437 14.4969 167.47 15.1665H166.328C166.303 14.8066 166.156 14.5178 165.889 14.3002C165.629 14.0826 165.278 13.9738 164.834 13.9738C164.424 13.9738 164.097 14.0617 163.855 14.2374C163.612 14.4132 163.491 14.6434 163.491 14.9279C163.491 15.1539 163.562 15.3422 163.704 15.4929C163.855 15.6352 164.039 15.7524 164.257 15.8444C164.482 15.9281 164.792 16.0244 165.186 16.1332C165.679 16.2671 166.081 16.401 166.391 16.5349C166.7 16.6605 166.964 16.853 167.182 17.1124C167.408 17.3719 167.525 17.7109 167.533 18.1294C167.533 18.506 167.429 18.845 167.219 19.1463C167.01 19.4476 166.713 19.6861 166.328 19.8619C165.951 20.0293 165.516 20.113 165.022 20.113Z" fill="#103928"/>
</g>
<defs>
<filter id="filter0_d_1_180" x="0" y="0" width="189.477" height="33" filterUnits="userSpaceOnUse" color-interpolation-filters="sRGB">
<feFlood flood-opacity="0" result="BackgroundImageFix"/>
<feColorMatrix in="SourceAlpha" type="matrix" values="0 0 0 0 0 0 0 0 0 0 0 0 0 0 0 0 0 0 127 0" result="hardAlpha"/>
<feOffset dy="1"/>
<feGaussianBlur stdDeviation="0.5"/>
<feComposite in2="hardAlpha" operator="out"/>
<feColorMatrix type="matrix" values="0 0 0 0 0 0 0 0 0 0 0 0 0 0 0 0 0 0 0.25 0"/>
<feBlend mode="normal" in2="BackgroundImageFix" result="effect1_dropShadow_1_180"/>
<feBlend mode="normal" in="SourceGraphic" in2="effect1_dropShadow_1_180" result="shape"/>
</filter>
</defs>
</svg>
