<svg width="26" height="25" viewBox="0 0 26 25" fill="none" xmlns="http://www.w3.org/2000/svg">
<path fill-rule="evenodd" clip-rule="evenodd" d="M5.99105 0.116455C4.58779 0.116455 3.24198 0.673758 2.24953 1.66582C1.25709 2.65788 0.699269 4.00349 0.69873 5.40674V19.5196C0.69873 20.9232 1.25631 22.2693 2.24882 23.2618C3.24132 24.2543 4.58744 24.8119 5.99105 24.8119H20.1039C21.5072 24.8114 22.8528 24.2536 23.8448 23.2611C24.8369 22.2687 25.3942 20.9229 25.3942 19.5196V5.40674C25.3937 4.00384 24.8361 2.65854 23.8441 1.66654C22.8521 0.674535 21.5068 0.116994 20.1039 0.116455H5.99105ZM21.6262 5.41487C21.6262 5.81914 21.4656 6.20685 21.1797 6.49271C20.8938 6.77857 20.5061 6.93916 20.1019 6.93916C19.6976 6.93916 19.3099 6.77857 19.024 6.49271C18.7382 6.20685 18.5776 5.81914 18.5776 5.41487C18.5776 5.01061 18.7382 4.6229 19.024 4.33704C19.3099 4.05118 19.6976 3.89059 20.1019 3.89059C20.5061 3.89059 20.8938 4.05118 21.1797 4.33704C21.4656 4.6229 21.6262 5.01061 21.6262 5.41487ZM13.0495 8.23582C11.9283 8.23582 10.8531 8.6812 10.0603 9.47398C9.26754 10.2668 8.82216 11.342 8.82216 12.4632C8.82216 13.5843 9.26754 14.6596 10.0603 15.4524C10.8531 16.2451 11.9283 16.6905 13.0495 16.6905C14.1707 16.6905 15.2459 16.2451 16.0387 15.4524C16.8315 14.6596 17.2769 13.5843 17.2769 12.4632C17.2769 11.342 16.8315 10.2668 16.0387 9.47398C15.2459 8.6812 14.1707 8.23582 13.0495 8.23582ZM6.78775 12.4632C6.78775 10.803 7.44725 9.2108 8.62118 8.03687C9.79511 6.86294 11.3873 6.20344 13.0475 6.20344C14.7077 6.20344 16.2999 6.86294 17.4738 8.03687C18.6477 9.2108 19.3072 10.803 19.3072 12.4632C19.3072 14.1234 18.6477 15.7155 17.4738 16.8895C16.2999 18.0634 14.7077 18.7229 13.0475 18.7229C11.3873 18.7229 9.79511 18.0634 8.62118 16.8895C7.44725 15.7155 6.78775 14.1234 6.78775 12.4632Z" fill="white"/>
</svg>
