<svg width="26" height="25" viewBox="0 0 26 25" fill="none" xmlns="http://www.w3.org/2000/svg">
<path d="M0.394043 1.76881C0.394043 0.791798 1.20591 0 2.20762 0H23.2759C24.2776 0 25.0895 0.791798 25.0895 1.76881V22.9267C25.0895 23.9037 24.2776 24.6955 23.2759 24.6955H2.20762C1.20591 24.6955 0.394043 23.9037 0.394043 22.9267V1.76881ZM8.0234 20.6732V9.52165H4.31754V20.6732H8.0234ZM6.17124 7.99824C7.46312 7.99824 8.26727 7.14316 8.26727 6.072C8.24411 4.97768 7.46466 4.14575 6.19593 4.14575C4.9272 4.14575 4.09836 4.97922 4.09836 6.072C4.09836 7.14316 4.90251 7.99824 6.14654 7.99824H6.17124ZM13.7466 20.6732V14.4453C13.7466 14.1119 13.7713 13.7785 13.8701 13.5408C14.1371 12.8756 14.7467 12.1857 15.7716 12.1857C17.1129 12.1857 17.6485 13.2074 17.6485 14.7077V20.6732H21.3543V14.2771C21.3543 10.8506 19.5269 9.25771 17.0882 9.25771C15.1218 9.25771 14.2405 10.3381 13.7466 11.0991V11.1377H13.7219L13.7466 11.0991V9.52165H10.0423C10.0886 10.5681 10.0423 20.6732 10.0423 20.6732H13.7466Z" fill="white"/>
</svg>
