<svg width="375" height="48" viewBox="0 0 375 48" fill="none" xmlns="http://www.w3.org/2000/svg">
<path d="M14.3866 27.3537V33.8729H10.8308C8.29683 33.8729 6.3214 33.1985 4.90453 31.8497C3.48767 30.4709 2.77923 28.2379 2.77923 25.1507V15.1695H0V8.78522H2.77923V2.67065H9.76819V8.78522H14.3458V15.1695H9.76819V25.2406C9.76819 25.9899 9.93168 26.5295 10.2586 26.8592C10.5856 27.1889 11.1306 27.3537 11.8935 27.3537H14.3866Z" fill="white"/>
<path d="M25.2686 12.9665C26.086 11.5877 27.1078 10.5087 28.3339 9.72938C29.56 8.9201 30.9224 8.51546 32.421 8.51546V16.6532H30.5001C28.7562 16.6532 27.4483 17.0729 26.5764 17.9121C25.7045 18.7214 25.2686 20.1601 25.2686 22.2283V33.8729H18.2796V8.78522H25.2686V12.9665Z" fill="white"/>
<path d="M58.2815 8.78522V33.8729H51.2926V30.456C50.5842 31.565 49.6169 32.4642 48.3907 33.1536C47.1919 33.813 45.8567 34.1427 44.3854 34.1427C42.6415 34.1427 41.1021 33.7231 39.7669 32.8838C38.4318 32.0146 37.3964 30.7707 36.6607 29.1521C35.9251 27.5336 35.5572 25.6302 35.5572 23.4422V8.78522H42.5053V22.4081C42.5053 24.0866 42.9004 25.3905 43.6906 26.3196C44.4807 27.2488 45.5434 27.7134 46.8785 27.7134C48.2409 27.7134 49.3171 27.2488 50.1073 26.3196C50.8975 25.3905 51.2926 24.0866 51.2926 22.4081V8.78522H58.2815Z" fill="white"/>
<circle cx="71.4581" cy="9.51246" r="9.4264" fill="white"/>
<path d="M66.0466 9.48855C66.0463 10.4462 66.2964 11.3811 66.772 12.2051L66.001 15.0208L68.8819 14.2653C69.6757 14.6981 70.5695 14.9264 71.4789 14.9267H71.4812C74.4763 14.9267 76.9145 12.4888 76.9158 9.4929C76.9163 8.04097 76.3514 6.67564 75.3254 5.64857C74.2993 4.62162 72.935 4.05565 71.4812 4.05505C68.4856 4.05505 66.0478 6.49257 66.0466 9.48855ZM67.7623 12.0632L67.6547 11.8924C67.2025 11.1733 66.9639 10.3422 66.9642 9.48889C66.9651 6.99871 68.9914 4.97275 71.4829 4.97275C72.6895 4.97326 73.8235 5.44371 74.6763 6.29726C75.5292 7.15091 75.9985 8.28566 75.9982 9.49256C75.9971 11.9827 73.9708 14.009 71.4812 14.009H71.4794C70.6688 14.0085 69.8738 13.7908 69.1804 13.3793L69.0154 13.2815L67.3058 13.7298L67.7623 12.0632Z" fill="#103928"/>
<path d="M70.1229 7.2172C70.0211 6.99106 69.9141 6.9865 69.8173 6.98253C69.7381 6.97912 69.6476 6.97937 69.5571 6.97937C69.4665 6.97937 69.3194 7.01345 69.195 7.14927C69.0705 7.28522 68.7197 7.61374 68.7197 8.28193C68.7197 8.95011 69.2063 9.59591 69.2742 9.68662C69.3421 9.77715 70.2136 11.1922 71.5938 11.7366C72.7408 12.189 72.9743 12.0991 73.2232 12.0764C73.4722 12.0538 74.0267 11.7479 74.1398 11.4308C74.253 11.1137 74.253 10.8419 74.219 10.7851C74.1851 10.7285 74.0945 10.6945 73.9587 10.6266C73.8229 10.5587 73.1553 10.2301 73.0308 10.1848C72.9064 10.1395 72.8158 10.1169 72.7253 10.2529C72.6347 10.3887 72.3747 10.6945 72.2954 10.7851C72.2162 10.8759 72.137 10.8872 72.0012 10.8192C71.8654 10.7511 71.428 10.6078 70.9092 10.1452C70.5055 9.78521 70.233 9.34065 70.1538 9.20466C70.0746 9.06888 70.1453 8.99527 70.2134 8.9276C70.2744 8.86675 70.3492 8.76901 70.4172 8.68973C70.4849 8.61041 70.5075 8.55383 70.5528 8.46325C70.5981 8.37259 70.5754 8.29327 70.5415 8.22534C70.5075 8.15741 70.2436 7.48573 70.1229 7.2172Z" fill="#103928"/>
<path d="M280.055 38.9241L265.04 16.1536H264.969V38.9241H262.508V12.8248H265.288L280.374 35.6307H280.445V12.8248H282.924V38.9241H280.055ZM295.92 39.4376C293.453 39.4139 291.411 38.564 289.794 36.8878C288.106 35.247 287.25 32.7977 287.226 29.5397C287.226 26.7067 287.952 24.3576 289.404 22.4925C290.856 20.6393 293.028 19.689 295.92 19.6418C298.848 19.689 301.037 20.6393 302.489 22.4925C303.917 24.3576 304.632 26.7067 304.632 29.5397C304.608 32.5616 303.823 34.9401 302.277 36.6754C300.73 38.4932 298.611 39.4139 295.92 39.4376ZM302.312 29.5397C302.336 27.2615 301.852 25.3728 300.86 23.8736C299.869 22.3745 298.222 21.6131 295.92 21.5895C293.654 21.6367 292.025 22.4453 291.033 24.0153C290.042 25.5852 289.546 27.4267 289.546 29.5397C289.546 31.9005 290.101 33.7951 291.21 35.2234C292.273 36.699 293.843 37.4485 295.92 37.4721C298.198 37.4485 299.845 36.6281 300.86 35.011C301.828 33.441 302.312 31.6172 302.312 29.5397ZM315.238 37.2243V38.9949C314.978 39.0421 314.642 39.1129 314.228 39.2074C313.792 39.3372 313.296 39.4139 312.741 39.4376C311.679 39.4376 310.87 39.1602 310.315 38.6054C309.702 38.0151 309.395 37.0472 309.395 35.7015V21.9613H306.756V20.1376H309.395V14.9142H311.573V20.1376H315.096V21.9613H311.573V34.8339C311.549 35.7192 311.649 36.3803 311.874 36.817C312.062 37.2538 312.594 37.4721 313.467 37.4721C314.069 37.4721 314.659 37.3895 315.238 37.2243ZM321.24 38.9241H319.062V20.1376H321.24V38.9241ZM321.346 16.0474H318.956V12.8248H321.346V16.0474ZM327.721 21.9613H324.923V20.1376H327.721V17.1629C327.638 13.9994 328.966 12.3822 331.705 12.3113C332.354 12.3113 332.956 12.3586 333.511 12.453V14.4538C333.05 14.324 332.62 14.259 332.218 14.259C331.12 14.2945 330.453 14.6604 330.217 15.3568C329.969 16.0769 329.863 16.8973 329.899 17.818V20.1376H333.511V21.9613H329.899V38.9241H327.721V21.9613ZM339.407 38.9241H337.229V20.1376H339.407V38.9241ZM339.513 16.0474H337.123V12.8248H339.513V16.0474ZM346.313 28.2294H358.565C358.565 26.3171 358.07 24.7471 357.078 23.5195C356.063 22.2564 354.581 21.6131 352.634 21.5895C350.721 21.6131 349.246 22.2682 348.207 23.5549C347.168 24.8298 346.537 26.3879 346.313 28.2294ZM360.885 30.0355H346.313C346.313 32.113 346.844 33.8541 347.906 35.2588C348.968 36.7108 350.544 37.4485 352.634 37.4721C355.62 37.4485 357.515 36.0084 358.317 33.1518H360.743C360.236 34.9696 359.356 36.457 358.105 37.6138C356.818 38.806 354.995 39.4139 352.634 39.4376C349.659 39.3903 347.469 38.4342 346.065 36.5691C344.66 34.7513 343.969 32.4317 343.993 29.6105C343.993 26.7775 344.766 24.4166 346.313 22.5279C347.812 20.6511 349.919 19.689 352.634 19.6418C357.969 19.689 360.72 23.1536 360.885 30.0355ZM367.436 29.7167V38.9241H365.276V20.1376H367.436V23.6612H367.525C368.127 22.162 368.912 21.1114 369.88 20.5094C370.848 19.931 372.105 19.6418 373.651 19.6418V21.9967C371.255 21.9967 369.608 22.7345 368.711 24.21C367.838 25.7092 367.413 27.5448 367.436 29.7167Z" fill="white"/>
<path d="M111.244 25.7653H111.171L106.914 8.60022H101.79L97.4695 25.5556H97.3966L93.4586 8.60022H87.98L94.5707 33.5046H100.113L104.261 16.5492H104.334L108.554 33.5046H113.997L120.697 8.60022H115.327L111.244 25.7653ZM137.397 17.0323C136.914 16.3942 136.239 15.8929 135.391 15.5282C134.544 15.1727 133.459 14.9904 132.128 14.9904C131.198 14.9904 130.241 15.2274 129.266 15.7014C128.29 16.1755 127.488 16.9412 126.859 17.9895H126.759V8.60022H121.809V33.5046H126.759V24.0606C126.759 22.2192 127.059 20.9066 127.67 20.1044C128.272 19.3022 129.247 18.9011 130.596 18.9011C131.781 18.9011 132.611 19.2657 133.076 20.0041C133.541 20.7334 133.778 21.8455 133.778 23.3314V33.5137H138.728V22.4198C138.728 21.3077 138.627 20.2867 138.427 19.366C138.226 18.4453 137.889 17.6705 137.397 17.0323ZM157.798 29.5028V20.1135C157.798 19.0196 157.552 18.1445 157.069 17.479C156.586 16.8136 155.957 16.3031 155.191 15.9293C154.425 15.5556 153.577 15.3095 152.648 15.1818C151.718 15.0542 150.797 14.9904 149.895 14.9904C148.892 14.9904 147.898 15.0907 146.914 15.2912C145.92 15.4918 145.036 15.8199 144.243 16.2849C143.45 16.7498 142.802 17.3696 142.292 18.1354C141.782 18.9011 141.49 19.8674 141.417 21.0342H146.367C146.458 20.0588 146.786 19.3569 147.342 18.9376C147.898 18.5182 148.664 18.3086 149.639 18.3086C150.077 18.3086 150.496 18.3359 150.879 18.3997C151.262 18.4544 151.599 18.5729 151.891 18.7461C152.183 18.9193 152.411 19.1654 152.584 19.4754C152.757 19.7853 152.848 20.2138 152.848 20.7516C152.875 21.2621 152.72 21.6541 152.392 21.9184C152.064 22.1828 151.627 22.3924 151.071 22.5292C150.514 22.6659 149.876 22.7753 149.156 22.8391C148.436 22.912 147.707 23.0032 146.959 23.1217C146.212 23.2402 145.473 23.3952 144.744 23.5957C144.015 23.7963 143.359 24.088 142.793 24.48C142.219 24.8811 141.754 25.4098 141.399 26.0661C141.043 26.7316 140.861 27.5702 140.861 28.5912C140.861 29.521 141.016 30.3232 141.335 30.9978C141.645 31.6723 142.082 32.2284 142.648 32.6751C143.204 33.1126 143.86 33.4408 144.598 33.6505C145.346 33.8601 146.148 33.9604 147.005 33.9604C148.117 33.9604 149.211 33.7963 150.277 33.4773C151.344 33.1491 152.283 32.5839 153.067 31.7635C153.094 32.0643 153.131 32.3651 153.185 32.6569C153.24 32.9486 153.322 33.2311 153.413 33.5137H158.436C158.208 33.14 158.044 32.5839 157.944 31.8364C157.844 31.098 157.798 30.3141 157.798 29.5028ZM152.848 26.531C152.848 26.8136 152.821 27.1874 152.757 27.6523C152.702 28.1172 152.538 28.573 152.283 29.0288C152.028 29.4845 151.627 29.8765 151.098 30.1956C150.56 30.5238 149.803 30.6878 148.828 30.6878C148.436 30.6878 148.053 30.6514 147.679 30.5784C147.306 30.5055 146.987 30.387 146.704 30.2138C146.421 30.0406 146.203 29.8036 146.039 29.5028C145.875 29.202 145.792 28.8282 145.792 28.3907C145.792 27.9257 145.875 27.5429 146.039 27.2421C146.203 26.9412 146.421 26.686 146.686 26.4946C146.95 26.294 147.269 26.139 147.625 26.0205C147.989 25.902 148.354 25.8109 148.728 25.7379C149.12 25.665 149.521 25.6103 149.913 25.5648C150.314 25.5192 150.688 25.4554 151.043 25.3915C151.408 25.3186 151.745 25.2366 152.055 25.1272C152.365 25.0269 152.629 24.8811 152.839 24.6896V26.531H152.848ZM167.041 10.0679H162.092V15.4735H159.092V18.7826H162.092V29.4207C162.092 30.3323 162.247 31.0616 162.547 31.6176C162.848 32.1737 163.258 32.6113 163.787 32.9121C164.307 33.2129 164.917 33.4135 165.601 33.5229C166.285 33.6231 167.014 33.6778 167.78 33.6778C168.272 33.6778 168.764 33.6687 169.284 33.6414C169.794 33.614 170.259 33.5684 170.679 33.5046V29.6669C170.442 29.7124 170.205 29.7489 169.949 29.7671C169.694 29.7945 169.43 29.8036 169.147 29.8036C168.309 29.8036 167.752 29.6669 167.47 29.3843C167.196 29.1017 167.051 28.5456 167.051 27.707V18.7735H170.679V15.4735H167.051V10.0679H167.041ZM187.516 25.6103C187.187 25.0451 186.759 24.562 186.221 24.1791C185.683 23.7963 185.073 23.4863 184.389 23.2584C183.705 23.0306 183.003 22.83 182.274 22.6659C181.581 22.5018 180.888 22.3469 180.214 22.2101C179.539 22.0734 178.938 21.9093 178.418 21.7361C177.898 21.5629 177.47 21.335 177.151 21.0524C176.823 20.7698 176.659 20.4143 176.659 19.9676C176.659 19.5939 176.75 19.3022 176.932 19.0743C177.114 18.8555 177.342 18.6823 177.616 18.5638C177.88 18.4453 178.181 18.3724 178.5 18.3359C178.828 18.2994 179.129 18.2812 179.402 18.2812C180.287 18.2812 181.052 18.4453 181.709 18.7826C182.356 19.1199 182.721 19.7671 182.784 20.7151H187.488C187.397 19.603 187.114 18.6732 186.631 17.9439C186.157 17.2147 185.556 16.6221 184.836 16.1846C184.115 15.747 183.295 15.428 182.374 15.2456C181.454 15.0633 180.505 14.9631 179.53 14.9631C178.555 14.9631 177.598 15.0542 176.668 15.2274C175.738 15.4006 174.899 15.7106 174.152 16.139C173.404 16.5674 172.812 17.1509 172.356 17.8983C171.9 18.6458 171.672 19.5939 171.672 20.7607C171.672 21.5538 171.836 22.2192 172.165 22.7662C172.484 23.3131 172.921 23.7689 173.45 24.1244C173.988 24.4891 174.598 24.7808 175.282 24.9996C175.966 25.2183 176.668 25.4098 177.388 25.5739C179.156 25.9476 180.533 26.3214 181.526 26.6951C182.511 27.0689 183.012 27.6249 183.012 28.3724C183.012 28.81 182.912 29.1746 182.702 29.4663C182.493 29.758 182.228 29.9859 181.918 30.1682C181.599 30.3414 181.253 30.4691 180.87 30.5511C180.487 30.6331 180.123 30.6787 179.767 30.6787C179.275 30.6787 178.81 30.624 178.354 30.5055C177.898 30.387 177.497 30.2047 177.151 29.9677C176.804 29.7216 176.513 29.4116 176.294 29.0288C176.075 28.6459 175.966 28.1901 175.966 27.6523H171.262C171.308 28.8647 171.581 29.8674 172.082 30.6696C172.584 31.4718 173.222 32.119 173.997 32.6022C174.772 33.0853 175.665 33.4408 176.668 33.6505C177.661 33.8601 178.691 33.9604 179.731 33.9604C180.752 33.9604 181.763 33.8601 182.748 33.6687C183.732 33.4682 184.617 33.1309 185.382 32.6386C186.148 32.1555 186.768 31.5083 187.251 30.7061C187.725 29.9039 187.962 28.9103 187.962 27.7252C187.999 26.8865 187.835 26.1846 187.516 25.6103ZM197.342 8.60022L187.926 33.5046H193.432L195.382 27.9622H204.699L206.577 33.5046H212.265L202.958 8.60022H197.342ZM196.823 23.8874L200.068 14.7443H200.141L203.277 23.8874H196.823ZM229.394 17.9166C228.719 17.0323 227.871 16.3213 226.85 15.7926C225.829 15.2548 224.608 14.9904 223.186 14.9904C222.064 14.9904 221.044 15.2092 220.114 15.6559C219.184 16.1025 218.418 16.8045 217.817 17.789H217.744V15.4735H213.031V39.8219H217.99V31.2712H218.054C218.655 32.1555 219.43 32.8209 220.378 33.2767C221.317 33.7325 222.347 33.9604 223.459 33.9604C224.781 33.9604 225.939 33.7052 226.932 33.1947C227.917 32.6842 228.746 32.0005 229.412 31.1345C230.077 30.2776 230.57 29.284 230.898 28.1719C231.217 27.0506 231.39 25.8929 231.39 24.6805C231.39 23.4043 231.226 22.1737 230.898 20.9977C230.57 19.8309 230.068 18.8008 229.394 17.9166ZM226.221 26.6769C226.085 27.3788 225.838 27.9804 225.501 28.5092C225.164 29.0288 224.726 29.4572 224.17 29.7854C223.623 30.1135 222.949 30.2776 222.128 30.2776C221.335 30.2776 220.67 30.1135 220.105 29.7854C219.549 29.4663 219.102 29.0379 218.765 28.5092C218.427 27.9896 218.181 27.3788 218.035 26.6769C217.88 25.9841 217.807 25.273 217.807 24.5529C217.807 23.8054 217.871 23.0852 218.017 22.3924C218.163 21.6905 218.4 21.0798 218.737 20.5419C219.075 20.0041 219.512 19.5757 220.059 19.2384C220.606 18.9011 221.281 18.7279 222.101 18.7279C222.894 18.7279 223.559 18.9011 224.106 19.2384C224.653 19.5757 225.1 20.0132 225.446 20.5602C225.793 21.1071 226.048 21.727 226.194 22.4289C226.349 23.1308 226.422 23.8327 226.422 24.562C226.431 25.2639 226.367 25.975 226.221 26.6769ZM250.633 21.0068C250.305 19.8309 249.804 18.8008 249.129 17.9166C248.455 17.0323 247.607 16.3213 246.586 15.7926C245.565 15.2548 244.344 14.9904 242.921 14.9904C241.809 14.9904 240.779 15.2092 239.849 15.6559C238.92 16.1025 238.154 16.8045 237.543 17.789H237.479V15.4735H232.766V39.8219H237.716V31.2712H237.789C238.391 32.1555 239.166 32.8209 240.105 33.2767C241.044 33.7325 242.074 33.9604 243.195 33.9604C244.517 33.9604 245.674 33.7052 246.668 33.1947C247.653 32.6842 248.482 32.0005 249.148 31.1345C249.813 30.2776 250.305 29.284 250.633 28.1719C250.962 27.0506 251.126 25.8929 251.126 24.6805C251.126 23.4043 250.962 22.1828 250.633 21.0068ZM245.957 26.6769C245.82 27.3788 245.583 27.9804 245.246 28.5092C244.909 29.0288 244.462 29.4572 243.915 29.7854C243.368 30.1135 242.694 30.2776 241.873 30.2776C241.08 30.2776 240.406 30.1135 239.849 29.7854C239.293 29.4663 238.847 29.0379 238.509 28.5092C238.172 27.9896 237.926 27.3788 237.78 26.6769C237.625 25.9841 237.552 25.273 237.552 24.5529C237.552 23.8054 237.625 23.0852 237.762 22.3924C237.899 21.6905 238.136 21.0798 238.473 20.5419C238.81 20.0041 239.248 19.5757 239.795 19.2384C240.342 18.9011 241.016 18.7279 241.837 18.7279C242.63 18.7279 243.295 18.9011 243.842 19.2384C244.389 19.5757 244.836 20.0132 245.182 20.5602C245.529 21.1071 245.784 21.727 245.93 22.4289C246.085 23.1308 246.158 23.8327 246.158 24.562C246.167 25.2639 246.103 25.975 245.957 26.6769Z" fill="white"/>
</svg>
